<?xml version="1.0" encoding="UTF-8"?>
<!DOCTYPE svg PUBLIC "-//W3C//DTD SVG 1.1//EN" "http://www.w3.org/Graphics/SVG/1.1/DTD/svg11.dtd">
<!-- Creator: CorelDRAW X5 -->
<svg xmlns="http://www.w3.org/2000/svg" xml:space="preserve" width="64rem" height="32rem" style="shape-rendering:geometricPrecision; text-rendering:geometricPrecision; image-rendering:optimizeQuality; fill-rule:evenodd; clip-rule:evenodd"
viewBox="0 0 21000 4282"
 xmlns:xlink="http://www.w3.org/1999/xlink"> 
 <defs>
  <style type="text/css">
   <![CDATA[
    .fil1 {fill:#2C4260;fill-rule:nonzero}
    .fil0 {fill:url(#id0)}
   ]]>
  </style>
  <linearGradient id="id0" gradientUnits="userSpaceOnUse" x1="2106.67" y1="4210.45" x2="2106.67" y2="0.07">
   <stop offset="0" style="stop-color:#2B5BA7"/>
   <stop offset="1" style="stop-color:#4979BC"/>
  </linearGradient>
 </defs>
 <g id="Capa_x0020_1">
  <metadata id="CorelCorpID_0Corel-Layer"/>
  <path class="fil0" d="M3713 0l-3212 0c-133,0 -260,53 -354,146 -94,94 -147,221 -147,354l0 3207c0,66 13,131 38,192 25,61 62,116 109,163 46,47 102,84 163,109 61,25 126,38 192,38l3212 0c66,0 131,-13 192,-39 61,-25 116,-62 163,-109 46,-47 83,-102 108,-163 25,-61 38,-126 37,-192l0 -3207c0,-133 -53,-260 -147,-354 -94,-94 -221,-147 -354,-147zm-1896 3033l0 0c0,22 -4,44 -13,64 -9,20 -21,39 -37,54 -16,16 -34,28 -55,36 -20,8 -42,12 -64,12l-702 0c-44,0 -86,-18 -117,-49 -31,-31 -49,-74 -49,-118l0 -2089c0,-44 18,-86 49,-118 31,-31 73,-49 117,-49l702 0c44,0 87,18 118,49 31,31 49,74 49,118l2 2089zm1620 -959l0 0c0,22 -4,44 -13,64 -8,20 -21,39 -37,54 -16,16 -34,28 -55,36 -20,8 -42,12 -64,12l-702 0c-44,0 -86,-18 -118,-49 -31,-31 -49,-74 -49,-118l0 -1130c0,-44 18,-86 49,-118 31,-31 74,-49 118,-49l702 0c44,0 86,18 117,49 31,31 49,74 49,118l3 1130z"/>
  <polygon class="fil1" points="8730,308 8730,1122 7766,1122 7766,4210 6836,4210 6836,1122 5871,1122 5871,308 "/>
  <path class="fil1" d="M9914 4210l-860 0 0 -3037 860 0 0 582c163,-410 425,-653 890,-624l0 900c-607,-47 -890,101 -890,588l0 1592z"/>
  <path class="fil1" d="M15502 4234c-564,0 -918,-270 -918,-908l0 -3326 866 0 0 3207c0,184 122,250 270,250 43,1 86,-1 128,-6l0 749c-113,28 -230,39 -346,35z"/>
  <path class="fil1" d="M17308 4234c-564,0 -919,-270 -919,-908l0 -3326 866 0 0 3207c0,184 122,250 273,250 43,1 85,-1 128,-6l0 749c-114,28 -231,40 -348,35z"/>
  <path class="fil1" d="M18071 2690c0,-938 540,-1580 1470,-1580 930,0 1459,640 1459,1580 0,940 -535,1592 -1459,1592 -924,0 -1470,-659 -1470,-1592zm843 0l0 0c0,457 192,819 627,819 435,0 616,-362 616,-819 0,-457 -186,-810 -616,-810 -431,0 -627,352 -627,810z"/>
  <path class="fil1" d="M11965 2965c241,26 483,41 725,42 659,0 1215,-177 1215,-815 0,-619 -572,-1084 -1260,-1084 -926,0 -1519,672 -1519,1610 0,974 512,1552 1668,1552 343,3 684,-58 1004,-180l0 -728c-297,95 -631,190 -974,190 -460,0 -781,-151 -859,-589zm663 -1193l0 0c244,0 439,165 439,391 0,291 -307,382 -661,382 -151,-1 -301,-13 -449,-36 11,-142 52,-280 119,-405 54,-99 134,-182 231,-241 97,-58 208,-90 321,-91l0 -1z"/>
 </g>
</svg>
